{"title":"Spartacus.Blood.and.Sand.S01E13.HDTV.x264.Kill Them All-Ipolitan","uid":5501771,"size":762841768,"categoryP":"video","categoryS":"tv_shows","magnet":"?xt=urn:btih:d194a5e708797d699635cd2f1932ad8926fc0c98&amp;dn=Spartacus.Blood.and.Sand.S01E13.HDTV.x264.Kill+Them+All-Ipolitan&amp;tr=udp%3A%2F%2Ftracker.openbittorrent.com%3A80&amp;tr=udp%3A%2F%2Fopen.demonii.com%3A1337&amp;tr=udp%3A%2F%2Ftracker.coppersurfer.tk%3A6969&amp;tr=udp%3A%2F%2Fexodus.desync.com%3A6969","seeders":0,"leechers":1,"uploader":"Ipolitan","files":3,"time":1271587484,"description":"Complete name : Spartacus.Blood.and.Sand.S01E13.HDTV.x264.Kill Them All-Ipolitan.avi\n      Format : AVI\n      Format/Info : Audio Video Interleave\n      File size : 727 MiB\n      Duration : 55mn 4s\n      Overall bit rate : 1 846 Kbps\n      Writing application : Lavf52.44.0\n   Video\n      Format : AVC\n      Format/Info : Advanced Video Codec\n      Format profile : &lt;a class=&quot;__cf_email__&quot; href=&quot;/cdn-cgi/l/email-protection&quot; data-cfemail=&quot;eeac8f9d8b8287808baea2dfc0dd&quot;&gt;[email&amp;#160;protected]&lt;/a&gt;&lt;script cf-hash='f9e31' type=&quot;text/javascript&quot;&gt;\n/* &lt;![CDATA[ */!function(){try{var t=&quot;currentScript&quot;in document?document.currentScript:function(){for(var t=document.getElementsByTagName(&quot;script&quot;),e=t.length;e--;)if(t[e].getAttribute(&quot;cf-hash&quot;))return t[e]}();if(t&amp;&amp;t.previousSibling){var e,r,n,i,c=t.previousSibling,a=c.getAttribute(&quot;data-cfemail&quot;);if(a){for(e=&quot;&quot;,r=parseInt(a.substr(0,2),16),n=2;a.length-n;n+=2)i=parseInt(a.substr(n,2),16)^r,e+=String.fromCharCode(i);e=document.createTextNode(e),c.parentNode.replaceChild(e,c)}}}catch(u){}}();/* ]]&gt; */&lt;/script&gt;\n      Format settings, CABAC : No\n      Format settings, ReFrames : 2 frames\n      Codec ID : H264\n      Duration : 55mn 4s\n      Bit rate : 1 516 Kbps\n      Nominal bit rate : 1 500 Kbps\n      Width : 1 280 pixels\n      Height : 720 pixels\n      Display aspect ratio : 16/9\n      Frame rate : 23.976 fps\n      Resolution : 24 bits\n      Colorimetry : 4:2:0\n      Scan type : Progressive\n      Bits/(Pixel*Frame) : 0.069\n      Stream size : 597 MiB (82%)\n      Writing library : x264 core 80 r1376 3feaec2\n   Audio\n      Format : AC-3\n      Format/Info : Audio Coding 3\n      Codec ID : 2000\n      Duration : 55mn 3s\n      Bit rate mode : Constant\n      Bit rate : 320 Kbps\n      Channel(s) : 2 channels\n      Channel positions : L R\n      Sampling rate : 48.0 KHz\n      Resolution : 16 bits\n      Stream size : 126 MiB (17%)\n      Alignment : Aligned on interleaves\n      Interleave, duration : 32 ms (0.77 video frame)\n      Interleave, preload duration : 32 \n\n\nNO-RAR\n\n\nI P O L I T A N - W o r l d  o f  e n t e r t a i n m e n t\n\nipolitan.wordpress com\n\n\nSeed and enjoy !","torrent":{"xt":"urn:btih:d194a5e708797d699635cd2f1932ad8926fc0c98","amp;dn":"Spartacus.Blood.and.Sand.S01E13.HDTV.x264.Kill+Them+All-Ipolitan","amp;tr":["udp%3A%2F%2Ftracker.openbittorrent.com%3A80","udp%3A%2F%2Fopen.demonii.com%3A1337","udp%3A%2F%2Ftracker.coppersurfer.tk%3A6969","udp%3A%2F%2Fexodus.desync.com%3A6969"],"infoHash":"d194a5e708797d699635cd2f1932ad8926fc0c98","infoHashBuffer":{"type":"Buffer","data":[209,148,165,231,8,121,125,105,150,53,205,47,25,50,173,137,38,252,12,152]},"announce":[],"urlList":[]}}